<svg viewBox="0 0 36 36" xmlns="http://www.w3.org/2000/svg">
   <path fill="#ED5564" d="m30.65684,9.79831c-0.80146,-1.89519 -1.9486,-3.59759 -3.40964,-5.05907c-1.46204,-1.46104 -3.16481,-2.60874 -5.05913,-3.41014c-1.96215,-0.83006 -4.04685,-1.25121 -6.19558,-1.25121c-2.1483,0 -4.23286,0.42109 -6.19514,1.25121c-1.89519,0.8014 -3.59759,1.94916 -5.05913,3.41014c-1.46098,1.46148 -2.60868,3.16388 -3.41014,5.05907c-0.83,1.96228 -1.25115,4.04691 -1.25115,6.19514c0,2.14867 0.42109,4.23336 1.25121,6.19558c0.8014,1.89432 1.94916,3.59709 3.41014,5.05814c1.46148,1.46204 3.16388,2.60918 5.05913,3.41058c1.96228,0.82962 4.04685,1.25121 6.19514,1.25121c2.14873,0 4.23342,-0.42159 6.19558,-1.25121c1.89432,-0.80146 3.59709,-1.9486 5.05913,-3.41058c1.46104,-1.46104 2.60818,-3.16388 3.40964,-5.05814c0.82962,-1.96221 1.25121,-4.04691 1.25121,-6.19558c-0.00006,-2.14823 -0.42165,-4.23286 -1.25128,-6.19514z"/>
   <path fill="#E6E9ED" d="m0.08326,16.44028c0.0544,1.99038 0.47207,3.92256 1.24487,5.74875c0.8014,1.89432 1.94916,3.59709 3.41014,5.05814c1.46148,1.46204 3.16388,2.60918 5.05913,3.41058c1.96228,0.82962 4.04685,1.25121 6.19514,1.25121c2.14873,0 4.23342,-0.42159 6.19558,-1.25121c1.89432,-0.80146 3.59709,-1.9486 5.05913,-3.41058c1.46104,-1.46104 2.60818,-3.16388 3.40964,-5.05814c0.7733,-1.82618 1.19097,-3.75837 1.24537,-5.74875l-31.81901,0z"/>
   <path fill="#434A54" d="m31.83227,17.56131c0.05048,-0.51876 0.07579,-1.04138 0.07579,-1.56786c0,-0.59163 -0.03208,-1.17835 -0.09519,-1.75879c-0.79077,0.12192 -1.92634,0.28077 -3.35717,0.43856c-2.71618,0.29967 -7.08165,0.65716 -12.46321,0.65716c-5.38112,0 -9.7471,-0.35749 -12.46271,-0.65716c-1.43133,-0.15786 -2.56647,-0.31664 -3.35717,-0.43856c-0.0636,0.58044 -0.09568,1.16722 -0.09568,1.75879c0,0.52647 0.02524,1.04915 0.07579,1.56786c2.58201,0.38858 8.27057,1.08403 15.83978,1.08403s13.25771,-0.69546 15.83978,-1.08403z"/>
   <path fill="#E6E9ED" d="m19.30887,16.65639c0,1.83153 -1.48535,3.31589 -3.31639,3.31589c-1.83109,0 -3.31589,-1.48436 -3.31589,-3.31589c0,-1.83116 1.48479,-3.31545 3.31589,-3.31545c1.83103,0.00006 3.31639,1.48436 3.31639,3.31545z"/>
   <path fill="#434A54" d="m15.99249,10.68812c-3.29114,0 -5.96834,2.67769 -5.96834,5.96834s2.67726,5.96778 5.96834,5.96778s5.96827,-2.67719 5.96827,-5.96778c0,-3.29065 -2.67713,-5.96834 -5.96827,-5.96834zm0,8.62172c-1.46241,0 -2.65245,-1.19097 -2.65245,-2.65338c0,-1.46247 1.18997,-2.65245 2.65245,-2.65245c1.46297,0 2.65189,1.18997 2.65189,2.65245c0,1.46235 -1.18892,2.65338 -2.65189,2.65338z"/>
   <path fill="#FFFFFF" opacity="0.2" d="m30.65684,9.79831c-0.80146,-1.89519 -1.9486,-3.59759 -3.40964,-5.05907c-1.46204,-1.46104 -3.16481,-2.60874 -5.05913,-3.41014c-1.96215,-0.83006 -4.04685,-1.25121 -6.19558,-1.25121c-0.22195,0 -0.44298,0.00485 -0.663,0.01362c1.91422,0.07772 3.77149,0.49302 5.5317,1.2376c1.89613,0.8014 3.59809,1.94916 5.05901,3.41014c1.46104,1.46148 2.6093,3.16388 3.41058,5.05907c0.83056,1.96228 1.25022,4.04691 1.25022,6.1952c0,2.14867 -0.41966,4.23336 -1.25022,6.19558c-0.80134,1.89432 -1.94953,3.59709 -3.41058,5.05814c-1.46092,1.46204 -3.16288,2.60918 -5.05901,3.41058c-1.76022,0.74414 -3.61755,1.15988 -5.5317,1.2376c0.22003,0.00877 0.44099,0.01362 0.663,0.01362c2.14873,0 4.23342,-0.42159 6.19558,-1.25121c1.89432,-0.80146 3.59709,-1.9486 5.05913,-3.41058c1.46104,-1.46104 2.60818,-3.16388 3.40964,-5.05814c0.82962,-1.96221 1.25121,-4.04691 1.25121,-6.19558c0,-2.1483 -0.42159,-4.23293 -1.25121,-6.1952z"/>
   <path opacity="0.1" d="m1.32814,22.18903c0.8014,1.89432 1.94916,3.59709 3.41014,5.05814c1.46148,1.46204 3.16388,2.60918 5.05913,3.41058c1.96228,0.82962 4.04685,1.25121 6.19514,1.25121c0.22195,0 0.44298,-0.00485 0.663,-0.01362c-1.91422,-0.07772 -3.77198,-0.49352 -5.5322,-1.2376c-1.89519,-0.80146 -3.59709,-1.9486 -5.05857,-3.41058c-1.46148,-1.46104 -2.60874,-3.16388 -3.41064,-5.05814c-0.83012,-1.96215 -1.25072,-4.04685 -1.25072,-6.19558c0,-2.1483 0.42059,-4.23293 1.25065,-6.1952c0.8019,-1.89519 1.94916,-3.59765 3.41064,-5.05857c1.46148,-1.46148 3.16338,-2.60924 5.05857,-3.41064c1.76022,-0.74457 3.61798,-1.15988 5.5322,-1.2376c-0.22003,-0.0087 -0.44105,-0.01355 -0.663,-0.01355c-2.1483,0 -4.23286,0.42109 -6.19514,1.25121c-1.89519,0.8014 -3.59759,1.94916 -5.05913,3.41064c-1.46098,1.46098 -2.60868,3.16338 -3.41014,5.05857c-0.83,1.96228 -1.25115,4.04691 -1.25115,6.19514c0,2.14867 0.42115,4.23342 1.25121,6.19558z"/>
</svg>