<svg viewBox="0 0 36 36" xmlns="http://www.w3.org/2000/svg">
   <path fill="#ED5564" d="m34.49959,11.0198c-0.90217,-2.13335 -2.19346,-4.04967 -3.83811,-5.69481c-1.64576,-1.64464 -3.56251,-2.93656 -5.69488,-3.83867c-2.20872,-0.93437 -4.55538,-1.40844 -6.97413,-1.40844c-2.41826,0 -4.76478,0.47401 -6.97364,1.40844c-2.13335,0.9021 -4.04967,2.19409 -5.69488,3.83867c-1.64457,1.64513 -2.93649,3.56146 -3.83867,5.69481c-0.9343,2.20886 -1.40837,4.55545 -1.40837,6.97364c0,2.41868 0.47401,4.76534 1.40844,6.97413c0.9021,2.13237 2.19409,4.04911 3.83867,5.69376c1.64513,1.64576 3.56146,2.93705 5.69488,3.83916c2.20886,0.93388 4.55538,1.40844 6.97364,1.40844c2.41875,0 4.76541,-0.47457 6.97413,-1.40844c2.13237,-0.90217 4.04911,-2.19346 5.69488,-3.83916c1.64464,-1.64464 2.93593,-3.56146 3.83811,-5.69376c0.93388,-2.20879 1.40844,-4.55545 1.40844,-6.97413c-0.00007,-2.41819 -0.47464,-4.76478 -1.40851,-6.97364z"/>
   <path fill="#E6E9ED" d="m0.08406,18.49642c0.06124,2.24049 0.53139,4.41548 1.40131,6.47115c0.9021,2.13237 2.19409,4.04911 3.83867,5.69376c1.64513,1.64576 3.56146,2.93705 5.69488,3.83916c2.20886,0.93388 4.55538,1.40844 6.97364,1.40844c2.41875,0 4.76541,-0.47457 6.97413,-1.40844c2.13237,-0.90217 4.04911,-2.19346 5.69488,-3.83916c1.64464,-1.64464 2.93593,-3.56146 3.83811,-5.69376c0.87047,-2.05566 1.34063,-4.23065 1.40187,-6.47115l-35.81747,0z"/>
   <path fill="#434A54" d="m35.82272,19.75832c0.05683,-0.58395 0.08531,-1.17225 0.08531,-1.76488c0,-0.66598 -0.03611,-1.32642 -0.10715,-1.9798c-0.89014,0.13724 -2.16841,0.31605 -3.77904,0.49367c-3.0575,0.33733 -7.97155,0.73974 -14.02937,0.73974c-6.05733,0 -10.97194,-0.40241 -14.02881,-0.73974c-1.61119,-0.17769 -2.88897,-0.35643 -3.77904,-0.49367c-0.07159,0.65338 -0.10771,1.3139 -0.10771,1.9798c0,0.59263 0.02841,1.18099 0.08531,1.76488c2.90647,0.43741 9.30987,1.22026 17.83024,1.22026s14.9237,-0.78285 17.83024,-1.22026z"/>
   <path fill="#E6E9ED" d="m21.72561,18.73969c0,2.06168 -1.67201,3.73257 -3.73313,3.73257c-2.06119,0 -3.73257,-1.67089 -3.73257,-3.73257c0,-2.06126 1.67138,-3.73208 3.73257,-3.73208c2.06112,0.00007 3.73313,1.67089 3.73313,3.73208z"/>
   <path fill="#434A54" d="m17.99248,12.02143c-3.70472,0 -6.71833,3.01418 -6.71833,6.71833s3.01369,6.7177 6.71833,6.7177s6.71826,-3.01362 6.71826,-6.7177c0,-3.70416 -3.01355,-6.71833 -6.71826,-6.71833zm0,9.70515c-1.64618,0 -2.98576,-1.34063 -2.98576,-2.98681c0,-1.64625 1.33951,-2.98576 2.98576,-2.98576c1.64681,0 2.98513,1.33951 2.98513,2.98576c0,1.64611 -1.33832,2.98681 -2.98513,2.98681z"/>
   <path fill="#FFFFFF" opacity="0.2" d="m34.49959,11.0198c-0.90217,-2.13335 -2.19346,-4.04967 -3.83811,-5.69481c-1.64576,-1.64464 -3.56251,-2.93656 -5.69488,-3.83867c-2.20872,-0.93437 -4.55538,-1.40844 -6.97413,-1.40844c-0.24985,0 -0.49864,0.00546 -0.74632,0.01533c2.15476,0.08748 4.24542,0.55498 6.22683,1.39312c2.1344,0.9021 4.05023,2.19409 5.69474,3.83867c1.64464,1.64513 2.93719,3.56146 3.83916,5.69481c0.93493,2.20886 1.40732,4.55545 1.40732,6.97371c0,2.41868 -0.4724,4.76534 -1.40732,6.97413c-0.90203,2.13237 -2.19451,4.04911 -3.83916,5.69376c-1.6445,1.64576 -3.56034,2.93705 -5.69474,3.83916c-1.98141,0.83765 -4.07214,1.30564 -6.22683,1.39312c0.24768,0.00987 0.4964,0.01533 0.74632,0.01533c2.41875,0 4.76541,-0.47457 6.97413,-1.40844c2.13237,-0.90217 4.04911,-2.19346 5.69488,-3.83916c1.64464,-1.64464 2.93593,-3.56146 3.83811,-5.69376c0.93388,-2.20879 1.40844,-4.55545 1.40844,-6.97413c0,-2.41826 -0.47457,-4.76485 -1.40844,-6.97371z"/>
   <path opacity="0.1" d="m1.48537,24.96757c0.9021,2.13237 2.19409,4.04911 3.83867,5.69376c1.64513,1.64576 3.56146,2.93705 5.69488,3.83916c2.20886,0.93388 4.55538,1.40844 6.97364,1.40844c0.24985,0 0.49864,-0.00546 0.74632,-0.01533c-2.15476,-0.08748 -4.24598,-0.55554 -6.22739,-1.39312c-2.13335,-0.90217 -4.04911,-2.19346 -5.69425,-3.83916c-1.64513,-1.64464 -2.93656,-3.56146 -3.83923,-5.69376c-0.93444,-2.20872 -1.40788,-4.55538 -1.40788,-6.97413c0,-2.41826 0.47345,-4.76485 1.40781,-6.97371c0.90266,-2.13335 2.19409,-4.04974 3.83923,-5.69425c1.64513,-1.64513 3.5609,-2.93712 5.69425,-3.83923c1.98141,-0.83814 4.07263,-1.30564 6.22739,-1.39312c-0.24768,-0.0098 -0.49647,-0.01526 -0.74632,-0.01526c-2.41826,0 -4.76478,0.47401 -6.97364,1.40844c-2.13335,0.9021 -4.04967,2.19409 -5.69488,3.83923c-1.64457,1.64457 -2.93649,3.5609 -3.83867,5.69425c-0.9343,2.20886 -1.40837,4.55545 -1.40837,6.97364c0,2.41868 0.47408,4.76541 1.40844,6.97413z"/>
</svg>