<?xml version="1.0" standalone="no"?>
<!DOCTYPE svg PUBLIC "-//W3C//DTD SVG 20010904//EN"
 "http://www.w3.org/TR/2001/REC-SVG-20010904/DTD/svg10.dtd">
<svg version="1.0" xmlns="http://www.w3.org/2000/svg"
 width="700.000000pt" height="700.000000pt" viewBox="0 0 700.000000 700.000000"
 preserveAspectRatio="xMidYMid meet">
<metadata>
Created by potrace 1.14, written by Peter Selinger 2001-2017
</metadata>
<g transform="translate(0.000000,700.000000) scale(0.100000,-0.100000)"
fill="#000000" stroke="none">
<path d="M2888 6980 c-576 -45 -1121 -242 -1578 -570 -139 -99 -239 -185 -383
-328 -529 -523 -847 -1211 -906 -1961 -50 -630 104 -1275 439 -1834 227 -379
626 -786 996 -1015 456 -283 929 -436 1459 -472 83 -5 182 -9 220 -9 64 1 61
2 -50 14 -179 20 -304 42 -462 80 -1117 275 -1999 1163 -2267 2285 -30 123
-69 360 -62 368 3 2 108 -7 233 -22 417 -49 961 -95 1332 -112 l143 -7 10 -29
c6 -15 27 -64 49 -108 344 -711 1267 -883 1849 -343 114 105 254 318 290 439
l12 41 152 7 c335 15 907 63 1286 107 218 25 533 69 539 75 12 11 22 257 16
397 -21 553 -178 1077 -460 1532 -452 732 -1206 1254 -2044 1415 -239 46 -588
68 -813 50z m351 -2725 c220 -58 381 -265 381 -490 -1 -237 -164 -446 -391
-500 -320 -75 -629 168 -629 495 0 228 157 435 377 495 65 18 196 18 262 0z"/>
<path d="M5399 1813 c-13 -16 -12 -17 4 -4 16 13 21 21 13 21 -2 0 -10 -8 -17
-17z"/>
<path d="M5179 1593 c-13 -16 -12 -17 4 -4 16 13 21 21 13 21 -2 0 -10 -8 -17
-17z"/>
<path d="M3448 813 c7 -3 16 -2 19 1 4 3 -2 6 -13 5 -11 0 -14 -3 -6 -6z"/>
<path d="M3338 803 c6 -2 18 -2 25 0 6 3 1 5 -13 5 -14 0 -19 -2 -12 -5z"/>
</g>
</svg>
